<?xml version="1.0" encoding="UTF-8" standalone="no"?>
<!DOCTYPE svg PUBLIC "-//W3C//DTD SVG 1.1//EN"
 "http://www.w3.org/Graphics/SVG/1.1/DTD/svg11.dtd">
<!-- Generated by graphviz version 13.1.2 (20250808.2320)
 -->
<!-- Title: cfg Pages: 1 -->
<svg width="141pt" height="820pt"
 viewBox="0.00 0.00 141.00 820.00" xmlns="http://www.w3.org/2000/svg" xmlns:xlink="http://www.w3.org/1999/xlink">
<g id="graph0" class="graph" transform="scale(1 1) rotate(0) translate(4 816)">
<title>cfg</title>
<polygon fill="white" stroke="none" points="-4,4 -4,-816 137,-816 137,4 -4,4"/>
<!-- entry -->
<g id="node1" class="node">
<title>entry</title>
<ellipse fill="black" stroke="black" cx="47" cy="-810.2" rx="1.8" ry="1.8"/>
</g>
<!-- n2 -->
<g id="node3" class="node">
<title>n2</title>
<polygon fill="none" stroke="black" points="74,-771.4 20,-771.4 20,-735.4 74,-735.4 74,-771.4"/>
<text xml:space="preserve" text-anchor="middle" x="47" y="-751.02" font-family="monospace" font-size="10.00">$x = 0</text>
</g>
<!-- entry&#45;&gt;n2 -->
<g id="edge1" class="edge">
<title>entry&#45;&gt;n2</title>
<path fill="none" stroke="black" d="M47,-808.25C47,-805.04 47,-794.2 47,-783.08"/>
<polygon fill="black" stroke="black" points="50.5,-783.21 47,-773.21 43.5,-783.22 50.5,-783.21"/>
</g>
<!-- exit -->
<g id="node2" class="node">
<title>exit</title>
<ellipse fill="black" stroke="black" cx="35" cy="-1.8" rx="1.8" ry="1.8"/>
</g>
<!-- n3 -->
<g id="node4" class="node">
<title>n3</title>
<polygon fill="none" stroke="black" points="47,-698.4 20,-680.4 47,-662.4 74,-680.4 47,-698.4"/>
<text xml:space="preserve" text-anchor="middle" x="47" y="-678.02" font-family="monospace" font-size="10.00">$a</text>
</g>
<!-- n2&#45;&gt;n3 -->
<g id="edge2" class="edge">
<title>n2&#45;&gt;n3</title>
<path fill="none" stroke="black" d="M47,-735.21C47,-727.74 47,-718.77 47,-710.32"/>
<polygon fill="black" stroke="black" points="50.5,-710.44 47,-700.44 43.5,-710.44 50.5,-710.44"/>
</g>
<!-- n4 -->
<g id="node5" class="node">
<title>n4</title>
<ellipse fill="black" stroke="black" cx="43" cy="-535.1" rx="1.8" ry="1.8"/>
</g>
<!-- n3&#45;&gt;n4 -->
<g id="edge5" class="edge">
<title>n3&#45;&gt;n4</title>
<path fill="none" stroke="black" d="M45.05,-663.14C43.46,-649.07 41.35,-628.18 40.5,-609.9 39.75,-593.92 39.97,-589.89 40.5,-573.9 40.78,-565.43 41.41,-555.9 41.97,-548.53"/>
<polygon fill="black" stroke="black" points="45.44,-549.04 42.77,-538.78 38.46,-548.46 45.44,-549.04"/>
<text xml:space="preserve" text-anchor="middle" x="53.25" y="-586.85" font-family="Times,serif" font-size="14.00">false</text>
</g>
<!-- n5 -->
<g id="node6" class="node">
<title>n5</title>
<polygon fill="none" stroke="black" points="133,-609.9 75,-609.9 75,-573.9 133,-573.9 133,-609.9"/>
<text xml:space="preserve" text-anchor="middle" x="104" y="-589.52" font-family="monospace" font-size="10.00">$x += 2</text>
</g>
<!-- n3&#45;&gt;n5 -->
<g id="edge3" class="edge">
<title>n3&#45;&gt;n5</title>
<path fill="none" stroke="black" d="M54.93,-667.37C63.03,-655.07 75.89,-635.55 86.42,-619.58"/>
<polygon fill="black" stroke="black" points="89.19,-621.74 91.77,-611.46 83.34,-617.88 89.19,-621.74"/>
<text xml:space="preserve" text-anchor="middle" x="91.11" y="-631.1" font-family="Times,serif" font-size="14.00">true</text>
</g>
<!-- n6 -->
<g id="node7" class="node">
<title>n6</title>
<polygon fill="none" stroke="black" points="43,-496.3 16,-478.3 43,-460.3 70,-478.3 43,-496.3"/>
<text xml:space="preserve" text-anchor="middle" x="43" y="-475.93" font-family="monospace" font-size="10.00">$b</text>
</g>
<!-- n4&#45;&gt;n6 -->
<g id="edge6" class="edge">
<title>n4&#45;&gt;n6</title>
<path fill="none" stroke="black" d="M43,-533.15C43,-529.96 43,-519.25 43,-508.2"/>
<polygon fill="black" stroke="black" points="46.5,-508.39 43,-498.39 39.5,-508.39 46.5,-508.39"/>
</g>
<!-- n5&#45;&gt;n4 -->
<g id="edge4" class="edge">
<title>n5&#45;&gt;n4</title>
<path fill="none" stroke="black" d="M84.7,-573.56C73.95,-563.9 61.04,-552.31 52.46,-544.6"/>
<polygon fill="black" stroke="black" points="54.96,-542.14 45.18,-538.06 50.28,-547.35 54.96,-542.14"/>
</g>
<!-- n7 -->
<g id="node8" class="node">
<title>n7</title>
<ellipse fill="black" stroke="black" cx="39" cy="-333" rx="1.8" ry="1.8"/>
</g>
<!-- n6&#45;&gt;n7 -->
<g id="edge9" class="edge">
<title>n6&#45;&gt;n7</title>
<path fill="none" stroke="black" d="M41.05,-461.04C39.46,-446.97 37.35,-426.08 36.5,-407.8 35.75,-391.82 35.97,-387.79 36.5,-371.8 36.78,-363.33 37.41,-353.8 37.97,-346.43"/>
<polygon fill="black" stroke="black" points="41.44,-346.94 38.77,-336.68 34.46,-346.36 41.44,-346.94"/>
<text xml:space="preserve" text-anchor="middle" x="49.25" y="-384.75" font-family="Times,serif" font-size="14.00">false</text>
</g>
<!-- n8 -->
<g id="node9" class="node">
<title>n8</title>
<polygon fill="none" stroke="black" points="129,-407.8 71,-407.8 71,-371.8 129,-371.8 129,-407.8"/>
<text xml:space="preserve" text-anchor="middle" x="100" y="-387.43" font-family="monospace" font-size="10.00">$x &#45;= 1</text>
</g>
<!-- n6&#45;&gt;n8 -->
<g id="edge7" class="edge">
<title>n6&#45;&gt;n8</title>
<path fill="none" stroke="black" d="M50.93,-465.27C59.03,-452.97 71.89,-433.45 82.42,-417.48"/>
<polygon fill="black" stroke="black" points="85.19,-419.64 87.77,-409.36 79.34,-415.78 85.19,-419.64"/>
<text xml:space="preserve" text-anchor="middle" x="87.11" y="-429" font-family="Times,serif" font-size="14.00">true</text>
</g>
<!-- n9 -->
<g id="node10" class="node">
<title>n9</title>
<polygon fill="none" stroke="black" points="39,-294.2 12,-276.2 39,-258.2 66,-276.2 39,-294.2"/>
<text xml:space="preserve" text-anchor="middle" x="39" y="-273.83" font-family="monospace" font-size="10.00">$c</text>
</g>
<!-- n7&#45;&gt;n9 -->
<g id="edge10" class="edge">
<title>n7&#45;&gt;n9</title>
<path fill="none" stroke="black" d="M39,-331.05C39,-327.86 39,-317.15 39,-306.1"/>
<polygon fill="black" stroke="black" points="42.5,-306.29 39,-296.29 35.5,-306.29 42.5,-306.29"/>
</g>
<!-- n8&#45;&gt;n7 -->
<g id="edge8" class="edge">
<title>n8&#45;&gt;n7</title>
<path fill="none" stroke="black" d="M80.7,-371.46C69.95,-361.8 57.04,-350.21 48.46,-342.5"/>
<polygon fill="black" stroke="black" points="50.96,-340.04 41.18,-335.96 46.28,-345.25 50.96,-340.04"/>
</g>
<!-- n10 -->
<g id="node11" class="node">
<title>n10</title>
<ellipse fill="black" stroke="black" cx="35" cy="-130.9" rx="1.8" ry="1.8"/>
</g>
<!-- n9&#45;&gt;n10 -->
<g id="edge13" class="edge">
<title>n9&#45;&gt;n10</title>
<path fill="none" stroke="black" d="M37.05,-258.94C35.46,-244.87 33.35,-223.98 32.5,-205.7 31.75,-189.72 31.97,-185.69 32.5,-169.7 32.78,-161.23 33.41,-151.7 33.97,-144.33"/>
<polygon fill="black" stroke="black" points="37.44,-144.84 34.77,-134.58 30.46,-144.26 37.44,-144.84"/>
<text xml:space="preserve" text-anchor="middle" x="45.25" y="-182.65" font-family="Times,serif" font-size="14.00">false</text>
</g>
<!-- n11 -->
<g id="node12" class="node">
<title>n11</title>
<polygon fill="none" stroke="black" points="125,-205.7 67,-205.7 67,-169.7 125,-169.7 125,-205.7"/>
<text xml:space="preserve" text-anchor="middle" x="96" y="-185.33" font-family="monospace" font-size="10.00">$x *= 2</text>
</g>
<!-- n9&#45;&gt;n11 -->
<g id="edge11" class="edge">
<title>n9&#45;&gt;n11</title>
<path fill="none" stroke="black" d="M46.93,-263.17C55.03,-250.87 67.89,-231.35 78.42,-215.38"/>
<polygon fill="black" stroke="black" points="81.19,-217.54 83.77,-207.26 75.34,-213.68 81.19,-217.54"/>
<text xml:space="preserve" text-anchor="middle" x="83.11" y="-226.9" font-family="Times,serif" font-size="14.00">true</text>
</g>
<!-- n12 -->
<g id="node13" class="node">
<title>n12</title>
<polygon fill="none" stroke="black" points="70,-92.1 0,-92.1 0,-56.1 70,-56.1 70,-92.1"/>
<text xml:space="preserve" text-anchor="middle" x="35" y="-71.72" font-family="monospace" font-size="10.00">return $x</text>
</g>
<!-- n10&#45;&gt;n12 -->
<g id="edge14" class="edge">
<title>n10&#45;&gt;n12</title>
<path fill="none" stroke="black" d="M35,-128.95C35,-125.74 35,-114.9 35,-103.78"/>
<polygon fill="black" stroke="black" points="38.5,-103.91 35,-93.91 31.5,-103.92 38.5,-103.91"/>
</g>
<!-- n11&#45;&gt;n10 -->
<g id="edge12" class="edge">
<title>n11&#45;&gt;n10</title>
<path fill="none" stroke="black" d="M76.7,-169.36C65.95,-159.7 53.04,-148.11 44.46,-140.4"/>
<polygon fill="black" stroke="black" points="46.96,-137.94 37.18,-133.86 42.28,-143.15 46.96,-137.94"/>
</g>
<!-- n12&#45;&gt;exit -->
<g id="edge15" class="edge">
<title>n12&#45;&gt;exit</title>
<path fill="none" stroke="black" d="M35,-55.72C35,-43.05 35,-26.19 35,-14.94"/>
<polygon fill="black" stroke="black" points="38.5,-15.12 35,-5.12 31.5,-15.12 38.5,-15.12"/>
<text xml:space="preserve" text-anchor="middle" x="51.12" y="-24.8" font-family="Times,serif" font-size="14.00">return</text>
</g>
</g>
</svg>
