<?xml version="1.0" encoding="UTF-8" standalone="no"?>
<!DOCTYPE svg PUBLIC "-//W3C//DTD SVG 1.1//EN"
 "http://www.w3.org/Graphics/SVG/1.1/DTD/svg11.dtd">
<!-- Generated by graphviz version 13.1.2 (20250808.2320)
 -->
<!-- Title: decomposition Pages: 1 -->
<svg width="1309pt" height="403pt"
 viewBox="0.00 0.00 1309.00 403.00" xmlns="http://www.w3.org/2000/svg" xmlns:xlink="http://www.w3.org/1999/xlink">
<g id="graph0" class="graph" transform="scale(1 1) rotate(0) translate(4 399)">
<title>decomposition</title>
<polygon fill="white" stroke="none" points="-4,4 -4,-399 1305,-399 1305,4 -4,4"/>
<!-- n0 -->
<g id="node1" class="node">
<title>n0</title>
<polygon fill="none" stroke="black" points="605,-358.5 605,-394.5 831,-394.5 831,-358.5 605,-358.5"/>
<text xml:space="preserve" text-anchor="middle" x="718" y="-374.5" font-family="monospace" font-size="10.00">function body|ft=0, rp=8|ACPATH = 8</text>
</g>
<!-- n1 -->
<g id="node2" class="node">
<title>n1</title>
<polygon fill="none" stroke="black" points="85,-269 85,-305 281,-305 281,-269 85,-269"/>
<text xml:space="preserve" text-anchor="middle" x="183" y="-285" font-family="monospace" font-size="10.00">$x = 0;|ft=1, bp=0, cp=0, rp=0</text>
</g>
<!-- n0&#45;&gt;n1 -->
<g id="edge1" class="edge">
<title>n0&#45;&gt;n1</title>
<path fill="none" stroke="black" d="M606.72,-358.03C570.81,-352.34 530.84,-345.96 494.25,-340 427.32,-329.1 352.35,-316.58 292.77,-306.56"/>
<polygon fill="black" stroke="black" points="293.38,-303.12 282.93,-304.91 292.22,-310.02 293.38,-303.12"/>
<text xml:space="preserve" text-anchor="middle" x="532.12" y="-326.7" font-family="Times,serif" font-size="14.00">× (sequential)</text>
</g>
<!-- n4 -->
<g id="node5" class="node">
<title>n4</title>
<polygon fill="none" stroke="black" points="360,-269 360,-305 586,-305 586,-269 360,-269"/>
<text xml:space="preserve" text-anchor="middle" x="473" y="-285" font-family="monospace" font-size="10.00">if (no else)|ft=2, bp=0, cp=0, rp=0</text>
</g>
<!-- n0&#45;&gt;n4 -->
<g id="edge4" class="edge">
<title>n0&#45;&gt;n4</title>
<path fill="none" stroke="black" d="M669.01,-358C629.7,-343.96 574.37,-324.2 532.51,-309.25"/>
<polygon fill="black" stroke="black" points="533.93,-306.04 523.33,-305.98 531.57,-312.63 533.93,-306.04"/>
<text xml:space="preserve" text-anchor="middle" x="655.32" y="-326.7" font-family="Times,serif" font-size="14.00">× (sequential)</text>
</g>
<!-- n10 -->
<g id="node11" class="node">
<title>n10</title>
<polygon fill="none" stroke="black" points="605,-269 605,-305 831,-305 831,-269 605,-269"/>
<text xml:space="preserve" text-anchor="middle" x="718" y="-285" font-family="monospace" font-size="10.00">if (no else)|ft=4, bp=0, cp=0, rp=0</text>
</g>
<!-- n0&#45;&gt;n10 -->
<g id="edge10" class="edge">
<title>n0&#45;&gt;n10</title>
<path fill="none" stroke="black" d="M718,-358.21C718,-346.35 718,-330.32 718,-316.58"/>
<polygon fill="black" stroke="black" points="721.5,-316.76 718,-306.76 714.5,-316.76 721.5,-316.76"/>
<text xml:space="preserve" text-anchor="middle" x="755.88" y="-326.7" font-family="Times,serif" font-size="14.00">× (sequential)</text>
</g>
<!-- n16 -->
<g id="node17" class="node">
<title>n16</title>
<polygon fill="none" stroke="black" points="849,-269 849,-305 1075,-305 1075,-269 849,-269"/>
<text xml:space="preserve" text-anchor="middle" x="962" y="-285" font-family="monospace" font-size="10.00">if (no else)|ft=8, bp=0, cp=0, rp=0</text>
</g>
<!-- n0&#45;&gt;n16 -->
<g id="edge16" class="edge">
<title>n0&#45;&gt;n16</title>
<path fill="none" stroke="black" d="M766.79,-358C805.86,-343.99 860.81,-324.29 902.47,-309.35"/>
<polygon fill="black" stroke="black" points="903.64,-312.65 911.87,-305.98 901.27,-306.06 903.64,-312.65"/>
<text xml:space="preserve" text-anchor="middle" x="899.73" y="-326.7" font-family="Times,serif" font-size="14.00">× (sequential)</text>
</g>
<!-- n22 -->
<g id="node23" class="node">
<title>n22</title>
<polygon fill="none" stroke="black" points="1093,-269 1093,-305 1301,-305 1301,-269 1093,-269"/>
<text xml:space="preserve" text-anchor="middle" x="1197" y="-285" font-family="monospace" font-size="10.00">return $x|ft=0, bp=0, cp=0, rp=8</text>
</g>
<!-- n0&#45;&gt;n22 -->
<g id="edge22" class="edge">
<title>n0&#45;&gt;n22</title>
<path fill="none" stroke="black" d="M831.26,-358.54C866.77,-352.96 906.06,-346.51 942,-340 996.14,-330.2 1056.46,-317.95 1104.84,-307.81"/>
<polygon fill="black" stroke="black" points="1105.38,-311.28 1114.44,-305.79 1103.94,-304.43 1105.38,-311.28"/>
<text xml:space="preserve" text-anchor="middle" x="1064.22" y="-326.7" font-family="Times,serif" font-size="14.00">× (sequential)</text>
</g>
<!-- n2 -->
<g id="node3" class="node">
<title>n2</title>
<polygon fill="none" stroke="black" points="0,-179.5 0,-215.5 112,-215.5 112,-179.5 0,-179.5"/>
<text xml:space="preserve" text-anchor="middle" x="56" y="-195.5" font-family="monospace" font-size="10.00">$x|t=1, f=1, p=1</text>
</g>
<!-- n1&#45;&gt;n2 -->
<g id="edge2" class="edge">
<title>n1&#45;&gt;n2</title>
<path fill="none" stroke="black" d="M157.6,-268.5C138.4,-255.27 111.81,-236.95 90.65,-222.37"/>
<polygon fill="black" stroke="black" points="92.82,-219.62 82.6,-216.83 88.85,-225.38 92.82,-219.62"/>
<text xml:space="preserve" text-anchor="middle" x="139.5" y="-237.2" font-family="Times,serif" font-size="14.00">var</text>
</g>
<!-- n3 -->
<g id="node4" class="node">
<title>n3</title>
<polygon fill="none" stroke="black" points="130,-179.5 130,-215.5 236,-215.5 236,-179.5 130,-179.5"/>
<text xml:space="preserve" text-anchor="middle" x="183" y="-195.5" font-family="monospace" font-size="10.00">0|t=1, f=1, p=1</text>
</g>
<!-- n1&#45;&gt;n3 -->
<g id="edge3" class="edge">
<title>n1&#45;&gt;n3</title>
<path fill="none" stroke="black" d="M183,-268.71C183,-256.85 183,-240.82 183,-227.08"/>
<polygon fill="black" stroke="black" points="186.5,-227.26 183,-217.26 179.5,-227.26 186.5,-227.26"/>
<text xml:space="preserve" text-anchor="middle" x="210.38" y="-237.2" font-family="Times,serif" font-size="14.00">× (assign)</text>
</g>
<!-- n5 -->
<g id="node6" class="node">
<title>n5</title>
<polygon fill="none" stroke="black" points="254,-179.5 254,-215.5 366,-215.5 366,-179.5 254,-179.5"/>
<text xml:space="preserve" text-anchor="middle" x="310" y="-195.5" font-family="monospace" font-size="10.00">if ($a)|t=1, f=1</text>
</g>
<!-- n4&#45;&gt;n5 -->
<g id="edge5" class="edge">
<title>n4&#45;&gt;n5</title>
<path fill="none" stroke="black" d="M440.41,-268.5C415.2,-254.97 380.08,-236.12 352.64,-221.39"/>
<polygon fill="black" stroke="black" points="354.34,-218.33 343.87,-216.68 351.03,-224.5 354.34,-218.33"/>
<text xml:space="preserve" text-anchor="middle" x="431.6" y="-237.2" font-family="Times,serif" font-size="14.00">condition</text>
</g>
<!-- n6 -->
<g id="node7" class="node">
<title>n6</title>
<polygon fill="none" stroke="black" points="384,-179.5 384,-215.5 562,-215.5 562,-179.5 384,-179.5"/>
<text xml:space="preserve" text-anchor="middle" x="473" y="-195.5" font-family="monospace" font-size="10.00">then|ft=1, bp=0, cp=0, rp=0</text>
</g>
<!-- n4&#45;&gt;n6 -->
<g id="edge6" class="edge">
<title>n4&#45;&gt;n6</title>
<path fill="none" stroke="black" d="M473,-268.71C473,-256.85 473,-240.82 473,-227.08"/>
<polygon fill="black" stroke="black" points="476.5,-227.26 473,-217.26 469.5,-227.26 476.5,-227.26"/>
<text xml:space="preserve" text-anchor="middle" x="514.25" y="-237.2" font-family="Times,serif" font-size="14.00">+ (true branch)</text>
</g>
<!-- n7 -->
<g id="node8" class="node">
<title>n7</title>
<polygon fill="none" stroke="black" points="372,-90 372,-126 574,-126 574,-90 372,-90"/>
<text xml:space="preserve" text-anchor="middle" x="473" y="-106" font-family="monospace" font-size="10.00">$x += 2;|ft=1, bp=0, cp=0, rp=0</text>
</g>
<!-- n6&#45;&gt;n7 -->
<g id="edge7" class="edge">
<title>n6&#45;&gt;n7</title>
<path fill="none" stroke="black" d="M473,-179.21C473,-167.35 473,-151.32 473,-137.58"/>
<polygon fill="black" stroke="black" points="476.5,-137.76 473,-127.76 469.5,-137.76 476.5,-137.76"/>
<text xml:space="preserve" text-anchor="middle" x="510.88" y="-147.7" font-family="Times,serif" font-size="14.00">× (sequential)</text>
</g>
<!-- n8 -->
<g id="node9" class="node">
<title>n8</title>
<polygon fill="none" stroke="black" points="354,-0.5 354,-36.5 466,-36.5 466,-0.5 354,-0.5"/>
<text xml:space="preserve" text-anchor="middle" x="410" y="-16.5" font-family="monospace" font-size="10.00">$x|t=1, f=1, p=1</text>
</g>
<!-- n7&#45;&gt;n8 -->
<g id="edge8" class="edge">
<title>n7&#45;&gt;n8</title>
<path fill="none" stroke="black" d="M460.55,-89.71C451.58,-77.25 439.3,-60.2 429.09,-46.02"/>
<polygon fill="black" stroke="black" points="431.99,-44.05 423.31,-37.98 426.31,-48.14 431.99,-44.05"/>
<text xml:space="preserve" text-anchor="middle" x="455.77" y="-58.2" font-family="Times,serif" font-size="14.00">var</text>
</g>
<!-- n9 -->
<g id="node10" class="node">
<title>n9</title>
<polygon fill="none" stroke="black" points="484,-0.5 484,-36.5 590,-36.5 590,-0.5 484,-0.5"/>
<text xml:space="preserve" text-anchor="middle" x="537" y="-16.5" font-family="monospace" font-size="10.00">2|t=1, f=1, p=1</text>
</g>
<!-- n7&#45;&gt;n9 -->
<g id="edge9" class="edge">
<title>n7&#45;&gt;n9</title>
<path fill="none" stroke="black" d="M485.64,-89.71C494.76,-77.25 507.23,-60.2 517.61,-46.02"/>
<polygon fill="black" stroke="black" points="520.41,-48.11 523.49,-37.97 514.76,-43.98 520.41,-48.11"/>
<text xml:space="preserve" text-anchor="middle" x="538.11" y="-58.2" font-family="Times,serif" font-size="14.00">× (assign)</text>
</g>
<!-- n11 -->
<g id="node12" class="node">
<title>n11</title>
<polygon fill="none" stroke="black" points="580,-179.5 580,-215.5 692,-215.5 692,-179.5 580,-179.5"/>
<text xml:space="preserve" text-anchor="middle" x="636" y="-195.5" font-family="monospace" font-size="10.00">if ($b)|t=1, f=1</text>
</g>
<!-- n10&#45;&gt;n11 -->
<g id="edge11" class="edge">
<title>n10&#45;&gt;n11</title>
<path fill="none" stroke="black" d="M701.8,-268.71C689.78,-255.89 673.21,-238.21 659.71,-223.8"/>
<polygon fill="black" stroke="black" points="662.59,-221.76 653.2,-216.86 657.49,-226.55 662.59,-221.76"/>
<text xml:space="preserve" text-anchor="middle" x="709.84" y="-237.2" font-family="Times,serif" font-size="14.00">condition</text>
</g>
<!-- n12 -->
<g id="node13" class="node">
<title>n12</title>
<polygon fill="none" stroke="black" points="710,-179.5 710,-215.5 888,-215.5 888,-179.5 710,-179.5"/>
<text xml:space="preserve" text-anchor="middle" x="799" y="-195.5" font-family="monospace" font-size="10.00">then|ft=2, bp=0, cp=0, rp=0</text>
</g>
<!-- n10&#45;&gt;n12 -->
<g id="edge12" class="edge">
<title>n10&#45;&gt;n12</title>
<path fill="none" stroke="black" d="M734,-268.71C745.87,-255.89 762.24,-238.21 775.58,-223.8"/>
<polygon fill="black" stroke="black" points="777.78,-226.58 782,-216.86 772.64,-221.82 777.78,-226.58"/>
<text xml:space="preserve" text-anchor="middle" x="807.01" y="-237.2" font-family="Times,serif" font-size="14.00">+ (true branch)</text>
</g>
<!-- n13 -->
<g id="node14" class="node">
<title>n13</title>
<polygon fill="none" stroke="black" points="698,-90 698,-126 900,-126 900,-90 698,-90"/>
<text xml:space="preserve" text-anchor="middle" x="799" y="-106" font-family="monospace" font-size="10.00">$x &#45;= 1;|ft=2, bp=0, cp=0, rp=0</text>
</g>
<!-- n12&#45;&gt;n13 -->
<g id="edge13" class="edge">
<title>n12&#45;&gt;n13</title>
<path fill="none" stroke="black" d="M799,-179.21C799,-167.35 799,-151.32 799,-137.58"/>
<polygon fill="black" stroke="black" points="802.5,-137.76 799,-127.76 795.5,-137.76 802.5,-137.76"/>
<text xml:space="preserve" text-anchor="middle" x="836.88" y="-147.7" font-family="Times,serif" font-size="14.00">× (sequential)</text>
</g>
<!-- n14 -->
<g id="node15" class="node">
<title>n14</title>
<polygon fill="none" stroke="black" points="697,-0.5 697,-36.5 809,-36.5 809,-0.5 697,-0.5"/>
<text xml:space="preserve" text-anchor="middle" x="753" y="-16.5" font-family="monospace" font-size="10.00">$x|t=1, f=1, p=1</text>
</g>
<!-- n13&#45;&gt;n14 -->
<g id="edge14" class="edge">
<title>n13&#45;&gt;n14</title>
<path fill="none" stroke="black" d="M789.91,-89.71C783.49,-77.49 774.74,-60.85 767.37,-46.84"/>
<polygon fill="black" stroke="black" points="770.52,-45.31 762.77,-38.09 764.33,-48.57 770.52,-45.31"/>
<text xml:space="preserve" text-anchor="middle" x="788.75" y="-58.2" font-family="Times,serif" font-size="14.00">var</text>
</g>
<!-- n15 -->
<g id="node16" class="node">
<title>n15</title>
<polygon fill="none" stroke="black" points="827,-0.5 827,-36.5 933,-36.5 933,-0.5 827,-0.5"/>
<text xml:space="preserve" text-anchor="middle" x="880" y="-16.5" font-family="monospace" font-size="10.00">1|t=1, f=1, p=1</text>
</g>
<!-- n13&#45;&gt;n15 -->
<g id="edge15" class="edge">
<title>n13&#45;&gt;n15</title>
<path fill="none" stroke="black" d="M815,-89.71C826.87,-76.89 843.24,-59.21 856.58,-44.8"/>
<polygon fill="black" stroke="black" points="858.78,-47.58 863,-37.86 853.64,-42.82 858.78,-47.58"/>
<text xml:space="preserve" text-anchor="middle" x="874.13" y="-58.2" font-family="Times,serif" font-size="14.00">× (assign)</text>
</g>
<!-- n17 -->
<g id="node18" class="node">
<title>n17</title>
<polygon fill="none" stroke="black" points="906,-179.5 906,-215.5 1018,-215.5 1018,-179.5 906,-179.5"/>
<text xml:space="preserve" text-anchor="middle" x="962" y="-195.5" font-family="monospace" font-size="10.00">if ($c)|t=1, f=1</text>
</g>
<!-- n16&#45;&gt;n17 -->
<g id="edge17" class="edge">
<title>n16&#45;&gt;n17</title>
<path fill="none" stroke="black" d="M962,-268.71C962,-256.85 962,-240.82 962,-227.08"/>
<polygon fill="black" stroke="black" points="965.5,-227.26 962,-217.26 958.5,-227.26 965.5,-227.26"/>
<text xml:space="preserve" text-anchor="middle" x="987.5" y="-237.2" font-family="Times,serif" font-size="14.00">condition</text>
</g>
<!-- n18 -->
<g id="node19" class="node">
<title>n18</title>
<polygon fill="none" stroke="black" points="1036,-179.5 1036,-215.5 1214,-215.5 1214,-179.5 1036,-179.5"/>
<text xml:space="preserve" text-anchor="middle" x="1125" y="-195.5" font-family="monospace" font-size="10.00">then|ft=4, bp=0, cp=0, rp=0</text>
</g>
<!-- n16&#45;&gt;n18 -->
<g id="edge18" class="edge">
<title>n16&#45;&gt;n18</title>
<path fill="none" stroke="black" d="M994.59,-268.5C1019.8,-254.97 1054.92,-236.12 1082.36,-221.39"/>
<polygon fill="black" stroke="black" points="1083.97,-224.5 1091.13,-216.68 1080.66,-218.33 1083.97,-224.5"/>
<text xml:space="preserve" text-anchor="middle" x="1099.35" y="-237.2" font-family="Times,serif" font-size="14.00">+ (true branch)</text>
</g>
<!-- n19 -->
<g id="node20" class="node">
<title>n19</title>
<polygon fill="none" stroke="black" points="1024,-90 1024,-126 1226,-126 1226,-90 1024,-90"/>
<text xml:space="preserve" text-anchor="middle" x="1125" y="-106" font-family="monospace" font-size="10.00">$x *= 2;|ft=4, bp=0, cp=0, rp=0</text>
</g>
<!-- n18&#45;&gt;n19 -->
<g id="edge19" class="edge">
<title>n18&#45;&gt;n19</title>
<path fill="none" stroke="black" d="M1125,-179.21C1125,-167.35 1125,-151.32 1125,-137.58"/>
<polygon fill="black" stroke="black" points="1128.5,-137.76 1125,-127.76 1121.5,-137.76 1128.5,-137.76"/>
<text xml:space="preserve" text-anchor="middle" x="1162.88" y="-147.7" font-family="Times,serif" font-size="14.00">× (sequential)</text>
</g>
<!-- n20 -->
<g id="node21" class="node">
<title>n20</title>
<polygon fill="none" stroke="black" points="987,-0.5 987,-36.5 1099,-36.5 1099,-0.5 987,-0.5"/>
<text xml:space="preserve" text-anchor="middle" x="1043" y="-16.5" font-family="monospace" font-size="10.00">$x|t=1, f=1, p=1</text>
</g>
<!-- n19&#45;&gt;n20 -->
<g id="edge20" class="edge">
<title>n19&#45;&gt;n20</title>
<path fill="none" stroke="black" d="M1108.8,-89.71C1096.78,-76.89 1080.21,-59.21 1066.71,-44.8"/>
<polygon fill="black" stroke="black" points="1069.59,-42.76 1060.2,-37.86 1064.49,-47.55 1069.59,-42.76"/>
<text xml:space="preserve" text-anchor="middle" x="1099.97" y="-58.2" font-family="Times,serif" font-size="14.00">var</text>
</g>
<!-- n21 -->
<g id="node22" class="node">
<title>n21</title>
<polygon fill="none" stroke="black" points="1117,-0.5 1117,-36.5 1223,-36.5 1223,-0.5 1117,-0.5"/>
<text xml:space="preserve" text-anchor="middle" x="1170" y="-16.5" font-family="monospace" font-size="10.00">2|t=1, f=1, p=1</text>
</g>
<!-- n19&#45;&gt;n21 -->
<g id="edge21" class="edge">
<title>n19&#45;&gt;n21</title>
<path fill="none" stroke="black" d="M1133.89,-89.71C1140.18,-77.49 1148.73,-60.85 1155.94,-46.84"/>
<polygon fill="black" stroke="black" points="1158.97,-48.59 1160.44,-38.1 1152.75,-45.39 1158.97,-48.59"/>
<text xml:space="preserve" text-anchor="middle" x="1178.91" y="-58.2" font-family="Times,serif" font-size="14.00">× (assign)</text>
</g>
</g>
</svg>
