<?xml version="1.0" encoding="UTF-8" standalone="no"?>
<!DOCTYPE svg PUBLIC "-//W3C//DTD SVG 1.1//EN"
 "http://www.w3.org/Graphics/SVG/1.1/DTD/svg11.dtd">
<!-- Generated by graphviz version 14.1.3 (20260303.0454)
 -->
<!-- Title: cfg Pages: 1 -->
<svg width="333pt" height="1009pt"
 viewBox="0.00 0.00 333.00 1009.00" xmlns="http://www.w3.org/2000/svg" xmlns:xlink="http://www.w3.org/1999/xlink">
<g id="graph0" class="graph" transform="scale(1 1) rotate(0) translate(4 1005.4)">
<title>cfg</title>
<polygon fill="white" stroke="none" points="-4,4 -4,-1005.4 329,-1005.4 329,4 -4,4"/>
<text xml:space="preserve" text-anchor="middle" x="162.5" y="-984.1" font-family="Times,serif" font-size="14.00">ACPATH paths: 8</text>
<g id="clust1" class="cluster">
<title>cluster_legend</title>
<polygon fill="none" stroke="black" stroke-dasharray="5,2" points="59,-800.4 59,-968.9 317,-968.9 317,-800.4 59,-800.4"/>
<text xml:space="preserve" text-anchor="middle" x="188" y="-951.6" font-family="Times,serif" font-size="14.00">Paths</text>
</g>
<!-- entry -->
<g id="node1" class="node">
<title>entry</title>
<ellipse fill="black" stroke="black" cx="47" cy="-872.4" rx="1.8" ry="1.8"/>
</g>
<!-- n2 -->
<g id="node3" class="node">
<title>n2</title>
<polygon fill="none" stroke="black" points="74,-771.4 20,-771.4 20,-735.4 74,-735.4 74,-771.4"/>
<text xml:space="preserve" text-anchor="start" x="44.75" y="-756.25" font-family="monospace" font-size="7.00" fill="#7f7f7f">1</text>
<text xml:space="preserve" text-anchor="start" x="29" y="-746.4" font-family="monospace" font-size="10.00">$x = 0</text>
</g>
<!-- entry&#45;&gt;n2 -->
<g id="edge1" class="edge">
<title>entry&#45;&gt;n2</title>
<path fill="none" stroke="#c4a000" stroke-width="5" d="M47,-870.65C47,-864.38 47,-819.93 47,-787.86"/>
<polygon fill="#c4a000" stroke="#c4a000" stroke-width="5" points="51.38,-787.88 47,-777.88 42.63,-787.88 51.38,-787.88"/>
</g>
<!-- exit -->
<g id="node2" class="node">
<title>exit</title>
<ellipse fill="black" stroke="black" cx="35" cy="-1.8" rx="1.8" ry="1.8"/>
</g>
<!-- n3 -->
<g id="node4" class="node">
<title>n3</title>
<polygon fill="none" stroke="black" points="47,-698.4 19.48,-680.4 47,-662.4 74.52,-680.4 47,-698.4"/>
<text xml:space="preserve" text-anchor="start" x="44.75" y="-683.25" font-family="monospace" font-size="7.00" fill="#7f7f7f">2</text>
<text xml:space="preserve" text-anchor="start" x="41" y="-673.4" font-family="monospace" font-size="10.00">$a</text>
</g>
<!-- n2&#45;&gt;n3 -->
<g id="edge2" class="edge">
<title>n2&#45;&gt;n3</title>
<path fill="none" stroke="#c4a000" stroke-width="5" d="M47,-735.21C47,-729.11 47,-722.02 47,-715.02"/>
<polygon fill="#c4a000" stroke="#c4a000" stroke-width="5" points="51.38,-715.16 47,-705.16 42.63,-715.16 51.38,-715.16"/>
</g>
<!-- n4 -->
<g id="node5" class="node">
<title>n4</title>
<ellipse fill="black" stroke="black" cx="43" cy="-535.1" rx="1.8" ry="1.8"/>
</g>
<!-- n3&#45;&gt;n4 -->
<g id="edge5" class="edge">
<title>n3&#45;&gt;n4</title>
<path fill="none" stroke="#c4a000" stroke-width="3" d="M45.05,-663.14C43.46,-649.07 41.35,-628.18 40.5,-609.9 39.75,-593.92 39.97,-589.89 40.5,-573.9 40.74,-566.56 41.25,-558.42 41.74,-551.59"/>
<polygon fill="#c4a000" stroke="#c4a000" stroke-width="3" points="45.22,-552.05 42.53,-541.8 38.24,-551.49 45.22,-552.05"/>
<text xml:space="preserve" text-anchor="middle" x="53.25" y="-586.85" font-family="Times,serif" font-size="14.00">false</text>
</g>
<!-- n5 -->
<g id="node6" class="node">
<title>n5</title>
<polygon fill="none" stroke="black" points="133,-609.9 75,-609.9 75,-573.9 133,-573.9 133,-609.9"/>
<text xml:space="preserve" text-anchor="start" x="101.75" y="-594.75" font-family="monospace" font-size="7.00" fill="#7f7f7f">3</text>
<text xml:space="preserve" text-anchor="start" x="83" y="-584.9" font-family="monospace" font-size="10.00">$x += 2</text>
</g>
<!-- n3&#45;&gt;n5 -->
<g id="edge3" class="edge">
<title>n3&#45;&gt;n5</title>
<path fill="none" stroke="#204a87" stroke-width="3" d="M54.93,-667.37C62.57,-655.77 74.45,-637.74 84.61,-622.33"/>
<polygon fill="#204a87" stroke="#204a87" stroke-width="3" points="87.52,-624.26 90.1,-613.99 81.68,-620.41 87.52,-624.26"/>
<text xml:space="preserve" text-anchor="middle" x="91.11" y="-631.1" font-family="Times,serif" font-size="14.00">true</text>
</g>
<!-- n6 -->
<g id="node7" class="node">
<title>n6</title>
<polygon fill="none" stroke="black" points="43,-496.3 15.48,-478.3 43,-460.3 70.52,-478.3 43,-496.3"/>
<text xml:space="preserve" text-anchor="start" x="40.75" y="-481.15" font-family="monospace" font-size="7.00" fill="#7f7f7f">4</text>
<text xml:space="preserve" text-anchor="start" x="37" y="-471.3" font-family="monospace" font-size="10.00">$b</text>
</g>
<!-- n4&#45;&gt;n6 -->
<g id="edge6" class="edge">
<title>n4&#45;&gt;n6</title>
<path fill="none" stroke="#c4a000" stroke-width="5" d="M43,-533.15C43,-530.43 43,-522.24 43,-513.04"/>
<polygon fill="#c4a000" stroke="#c4a000" stroke-width="5" points="47.38,-513.12 43,-503.12 38.63,-513.12 47.38,-513.12"/>
</g>
<!-- n5&#45;&gt;n4 -->
<g id="edge4" class="edge">
<title>n5&#45;&gt;n4</title>
<path fill="none" stroke="#204a87" stroke-width="3" d="M84.7,-573.56C74.8,-564.67 63.08,-554.14 54.59,-546.51"/>
<polygon fill="#204a87" stroke="#204a87" stroke-width="3" points="57.21,-544.16 47.44,-540.09 52.54,-549.37 57.21,-544.16"/>
</g>
<!-- n7 -->
<g id="node8" class="node">
<title>n7</title>
<ellipse fill="black" stroke="black" cx="39" cy="-333" rx="1.8" ry="1.8"/>
</g>
<!-- n6&#45;&gt;n7 -->
<g id="edge9" class="edge">
<title>n6&#45;&gt;n7</title>
<path fill="none" stroke="#c4a000" stroke-width="3" d="M41.05,-461.04C39.46,-446.97 37.35,-426.08 36.5,-407.8 35.75,-391.82 35.97,-387.79 36.5,-371.8 36.74,-364.46 37.25,-356.32 37.74,-349.49"/>
<polygon fill="#c4a000" stroke="#c4a000" stroke-width="3" points="41.22,-349.95 38.53,-339.7 34.24,-349.39 41.22,-349.95"/>
<text xml:space="preserve" text-anchor="middle" x="49.25" y="-384.75" font-family="Times,serif" font-size="14.00">false</text>
</g>
<!-- n8 -->
<g id="node9" class="node">
<title>n8</title>
<polygon fill="none" stroke="black" points="129,-407.8 71,-407.8 71,-371.8 129,-371.8 129,-407.8"/>
<text xml:space="preserve" text-anchor="start" x="97.75" y="-392.65" font-family="monospace" font-size="7.00" fill="#7f7f7f">5</text>
<text xml:space="preserve" text-anchor="start" x="79" y="-382.8" font-family="monospace" font-size="10.00">$x &#45;= 1</text>
</g>
<!-- n6&#45;&gt;n8 -->
<g id="edge7" class="edge">
<title>n6&#45;&gt;n8</title>
<path fill="none" stroke="#8f5902" stroke-width="3" d="M50.93,-465.27C58.57,-453.67 70.45,-435.64 80.61,-420.23"/>
<polygon fill="#8f5902" stroke="#8f5902" stroke-width="3" points="83.52,-422.16 86.1,-411.89 77.68,-418.31 83.52,-422.16"/>
<text xml:space="preserve" text-anchor="middle" x="87.11" y="-429" font-family="Times,serif" font-size="14.00">true</text>
</g>
<!-- n9 -->
<g id="node10" class="node">
<title>n9</title>
<polygon fill="none" stroke="black" points="39,-294.2 11.48,-276.2 39,-258.2 66.52,-276.2 39,-294.2"/>
<text xml:space="preserve" text-anchor="start" x="36.75" y="-279.05" font-family="monospace" font-size="7.00" fill="#7f7f7f">6</text>
<text xml:space="preserve" text-anchor="start" x="33" y="-269.2" font-family="monospace" font-size="10.00">$c</text>
</g>
<!-- n7&#45;&gt;n9 -->
<g id="edge10" class="edge">
<title>n7&#45;&gt;n9</title>
<path fill="none" stroke="#c4a000" stroke-width="5" d="M39,-331.05C39,-328.33 39,-320.14 39,-310.94"/>
<polygon fill="#c4a000" stroke="#c4a000" stroke-width="5" points="43.38,-311.02 39,-301.02 34.63,-311.02 43.38,-311.02"/>
</g>
<!-- n8&#45;&gt;n7 -->
<g id="edge8" class="edge">
<title>n8&#45;&gt;n7</title>
<path fill="none" stroke="#8f5902" stroke-width="3" d="M80.7,-371.46C70.8,-362.57 59.08,-352.04 50.59,-344.41"/>
<polygon fill="#8f5902" stroke="#8f5902" stroke-width="3" points="53.21,-342.06 43.44,-337.99 48.54,-347.27 53.21,-342.06"/>
</g>
<!-- n10 -->
<g id="node11" class="node">
<title>n10</title>
<ellipse fill="black" stroke="black" cx="35" cy="-130.9" rx="1.8" ry="1.8"/>
</g>
<!-- n9&#45;&gt;n10 -->
<g id="edge13" class="edge">
<title>n9&#45;&gt;n10</title>
<path fill="none" stroke="#c4a000" stroke-width="3" d="M37.05,-258.94C35.46,-244.87 33.35,-223.98 32.5,-205.7 31.75,-189.72 31.97,-185.69 32.5,-169.7 32.74,-162.36 33.25,-154.22 33.74,-147.39"/>
<polygon fill="#c4a000" stroke="#c4a000" stroke-width="3" points="37.22,-147.85 34.53,-137.6 30.24,-147.29 37.22,-147.85"/>
<text xml:space="preserve" text-anchor="middle" x="45.25" y="-182.65" font-family="Times,serif" font-size="14.00">false</text>
</g>
<!-- n11 -->
<g id="node12" class="node">
<title>n11</title>
<polygon fill="none" stroke="black" points="125,-205.7 67,-205.7 67,-169.7 125,-169.7 125,-205.7"/>
<text xml:space="preserve" text-anchor="start" x="93.75" y="-190.55" font-family="monospace" font-size="7.00" fill="#7f7f7f">7</text>
<text xml:space="preserve" text-anchor="start" x="75" y="-180.7" font-family="monospace" font-size="10.00">$x *= 2</text>
</g>
<!-- n9&#45;&gt;n11 -->
<g id="edge11" class="edge">
<title>n9&#45;&gt;n11</title>
<path fill="none" stroke="#ce5c00" stroke-width="3" d="M46.93,-263.17C54.57,-251.57 66.45,-233.54 76.61,-218.13"/>
<polygon fill="#ce5c00" stroke="#ce5c00" stroke-width="3" points="79.52,-220.06 82.1,-209.79 73.68,-216.21 79.52,-220.06"/>
<text xml:space="preserve" text-anchor="middle" x="83.11" y="-226.9" font-family="Times,serif" font-size="14.00">true</text>
</g>
<!-- n12 -->
<g id="node13" class="node">
<title>n12</title>
<polygon fill="none" stroke="black" points="70,-92.1 0,-92.1 0,-56.1 70,-56.1 70,-92.1"/>
<text xml:space="preserve" text-anchor="start" x="32.75" y="-76.95" font-family="monospace" font-size="7.00" fill="#7f7f7f">8</text>
<text xml:space="preserve" text-anchor="start" x="8" y="-67.1" font-family="monospace" font-size="10.00">return $x</text>
</g>
<!-- n10&#45;&gt;n12 -->
<g id="edge14" class="edge">
<title>n10&#45;&gt;n12</title>
<path fill="none" stroke="#c4a000" stroke-width="5" d="M35,-128.95C35,-126.18 35,-117.73 35,-108.31"/>
<polygon fill="#c4a000" stroke="#c4a000" stroke-width="5" points="39.38,-108.64 35,-98.64 30.63,-108.64 39.38,-108.64"/>
</g>
<!-- n11&#45;&gt;n10 -->
<g id="edge12" class="edge">
<title>n11&#45;&gt;n10</title>
<path fill="none" stroke="#ce5c00" stroke-width="3" d="M76.7,-169.36C66.8,-160.47 55.08,-149.94 46.59,-142.31"/>
<polygon fill="#ce5c00" stroke="#ce5c00" stroke-width="3" points="49.21,-139.96 39.44,-135.89 44.54,-145.17 49.21,-139.96"/>
</g>
<!-- n12&#45;&gt;exit -->
<g id="edge15" class="edge">
<title>n12&#45;&gt;exit</title>
<path fill="none" stroke="#c4a000" stroke-width="5" d="M35,-55.72C35,-44.67 35,-30.43 35,-19.51"/>
<polygon fill="#c4a000" stroke="#c4a000" stroke-width="5" points="39.38,-19.85 35,-9.85 30.63,-19.85 39.38,-19.85"/>
<text xml:space="preserve" text-anchor="middle" x="51.12" y="-24.8" font-family="Times,serif" font-size="14.00">return</text>
</g>
<!-- legend -->
<g id="node14" class="node">
<title>legend</title>
<text xml:space="preserve" text-anchor="start" x="77" y="-920.65" font-family="monospace" font-size="10.00" fill="#c4a000">Path 1: 1 → 2 → 4 → 6 → 8</text>
<text xml:space="preserve" text-anchor="start" x="77" y="-905.9" font-family="monospace" font-size="10.00" fill="#ce5c00">Path 2: 1 → 2 → 4 → 6 → 7 → 8</text>
<text xml:space="preserve" text-anchor="start" x="77" y="-891.15" font-family="monospace" font-size="10.00" fill="#8f5902">Path 3: 1 → 2 → 4 → 5 → 6 → 8</text>
<text xml:space="preserve" text-anchor="start" x="77" y="-876.4" font-family="monospace" font-size="10.00" fill="#4e9a06">Path 4: 1 → 2 → 4 → 5 → 6 → 7 → 8</text>
<text xml:space="preserve" text-anchor="start" x="77" y="-861.65" font-family="monospace" font-size="10.00" fill="#204a87">Path 5: 1 → 2 → 3 → 4 → 6 → 8</text>
<text xml:space="preserve" text-anchor="start" x="77" y="-846.9" font-family="monospace" font-size="10.00" fill="#5c3566">Path 6: 1 → 2 → 3 → 4 → 6 → 7 → 8</text>
<text xml:space="preserve" text-anchor="start" x="77" y="-832.15" font-family="monospace" font-size="10.00" fill="#a40000">Path 7: 1 → 2 → 3 → 4 → 5 → 6 → 8</text>
<text xml:space="preserve" text-anchor="start" x="77" y="-817.4" font-family="monospace" font-size="10.00" fill="#fce94f">Path 8: 1 → 2 → 3 → 4 → 5 → 6 → 7 → 8</text>
</g>
</g>
</svg>
